# xmcd
#
# Track frame offsets: 
#        150
#        14611
#        38457
#        58174
#        82320
#        105848
#        122435
#        176518
#        197983
#        215496
#
# Disc length: 3151 seconds
#
# Revision: 2
# Processed by: cddbd v1.5.2PL0 Copyright (c) Steve Scherf et al.
# Submitted via: ExactAudioCopy v0.99pb3
#
DISCID=840c4d0a
DTITLE=Aga Zaryan - My Lullaby
DYEAR=1900
DGENRE=Jazz
TTITLE0=To see World
TTITLE1=Waltz for Debby
TTITLE2=I've Got the World on a String
TTITLE3=My Lullaby
TTITLE4=You and the Night and the Music
TTITLE5=I Put a Spell on You
TTITLE6=Never Said (Chan's Song)/Trust me
TTITLE7=Still we dream (Ugly beauty)
TTITLE8=I Hear Music
TTITLE9=Polka Dots and Moonbeams
EXTD=
EXTT0=
EXTT1=
EXTT2=
EXTT3=
EXTT4=
EXTT5=
EXTT6=
EXTT7=
EXTT8=
EXTT9=
PLAYORDER=
